<?xml version="1.0" encoding="UTF-8" standalone="no"?>
<!-- Generator: Adobe Illustrator 15.0.0, SVG Export Plug-In . SVG Version: 6.00 Build 0)  -->

<svg
   xmlns:dc="http://purl.org/dc/elements/1.1/"
   xmlns:cc="http://creativecommons.org/ns#"
   xmlns:rdf="http://www.w3.org/1999/02/22-rdf-syntax-ns#"
   xmlns:svg="http://www.w3.org/2000/svg"
   xmlns="http://www.w3.org/2000/svg"
   xmlns:sodipodi="http://sodipodi.sourceforge.net/DTD/sodipodi-0.dtd"
   xmlns:inkscape="http://www.inkscape.org/namespaces/inkscape"
   version="1.1"
   id="Layer_1"
   x="0px"
   y="0px"
   width="2076.7334"
   height="945.565"
   viewBox="0 0 2076.7334 945.565"
   enable-background="new 0 0 1296 864"
   xml:space="preserve"
   inkscape:version="0.48.2 r9819"
   sodipodi:docname="KanjusLogo-transparent.svg"
   inkscape:export-filename="/Users/jayraj/Downloads/KanjusAssets 2/Backgrounds/transparent-logo.png"
   inkscape:export-xdpi="180"
   inkscape:export-ydpi="180"><metadata
   id="metadata21"><rdf:RDF><cc:Work
       rdf:about=""><dc:format>image/svg+xml</dc:format><dc:type
         rdf:resource="http://purl.org/dc/dcmitype/StillImage" /><dc:title></dc:title></cc:Work></rdf:RDF></metadata><defs
   id="defs19">
	
	
</defs><sodipodi:namedview
   pagecolor="#ffffff"
   bordercolor="#666666"
   borderopacity="1"
   objecttolerance="10"
   gridtolerance="10"
   guidetolerance="10"
   inkscape:pageopacity="0"
   inkscape:pageshadow="2"
   inkscape:window-width="1280"
   inkscape:window-height="752"
   id="namedview17"
   showgrid="false"
   inkscape:zoom="0.23815749"
   inkscape:cx="638.10879"
   inkscape:cy="94.273791"
   inkscape:window-x="0"
   inkscape:window-y="0"
   inkscape:window-maximized="0"
   inkscape:current-layer="Layer_1"
   fit-margin-top="0"
   fit-margin-left="0"
   fit-margin-right="0"
   fit-margin-bottom="0" />

<g
   id="g5"
   transform="matrix(3.6526199,0,0,4.1372133,-1274.2859,-1195.9641)"
   inkscape:export-filename="/Users/jayraj/Downloads/KanjusAssets 2/Vectors/logo-transparent-background.png"
   inkscape:export-xdpi="180"
   inkscape:export-ydpi="180">
	<path
   d="m 666.26,469.814 c -4.617,1.864 -6.168,2.483 -11.074,4.489 0,0 -151.712,71.468 -175.854,-0.003 -1.5,-4.451 -3.189,-20.508 -3.266,-20.882 -0.397,-1.913 -0.783,-8.699 -0.783,-8.779 -0.149,-13.789 2.973,-32.774 0.078,-46.775 -0.998,-4.836 -2.711,-9.059 -5.551,-12.225 -4.709,-5.257 -12.516,-7.589 -25.301,-4.939 -2.026,0.414 -4.051,0.992 -6.359,1.514 8.806,-9.979 15.288,-21.297 18.482,-27.756 5.721,-11.57 11.459,-22.403 21.517,-34.221 10.056,-11.823 23.686,-13.435 23.686,-13.435 8.065,-0.742 4.293,-2.652 4.293,-2.652 -8.786,-3.938 -17.021,-3.679 -24.51,-0.93 -25.099,9.229 -41.832,46.538 -42.895,48.544 -0.052,0.103 -0.131,0.246 -0.214,0.401 -1.522,2.821 -7.896,14.271 -13.383,22.165 l 0.194,-31.218 0.122,-18.916 c -0.054,-0.628 -0.115,-1.185 -0.196,-1.583 -0.599,-2.899 -2.184,-4.641 -4.713,-5.283 l 0.021,-0.009 c 0,0 -16.507,-6.719 -46.515,20.929 l 0.019,-0.009 c -5.138,4.451 -10.018,9.701 -13.7,15.745 0,0 -7.285,11.468 -6.593,19.972 0.51,6.23 5.321,10.861 20.406,8.229 2.086,-0.366 4.363,-0.86 6.865,-1.521 0,0 8.591,-2.547 0.287,-4.81 0,0 -4.379,-1.265 -7.576,-2.933 -0.736,-0.385 -1.408,-0.787 -1.949,-1.203 -2.899,-2.223 -10.351,-13.727 11.069,-31.9 0,0 9.958,-8.945 12.109,-4.777 10e-4,0.005 0.005,0.012 0.013,0.014 0.006,0.008 0.007,0.015 0.015,0.02 l -0.068,10.604 -0.233,37.193 -0.11,18.438 c 0,0 -0.802,41.201 -1.707,51.435 -0.93,10.49 -6.316,15.4 -12.82,16.972 -2.426,0.586 -4.997,0.725 -7.564,0.499 -2.643,-0.238 -4.8,-0.801 -6.513,-1.711 -3.782,-1.992 -5.421,-5.635 -5.425,-11.015 0,0 -0.046,-2.384 0.958,-1.583 1.179,1.242 3.057,1.788 4.72,1.938 0.38,0.033 0.749,0.037 1.114,0.027 3.59,-0.132 6.541,-2.445 8.09,-5.429 0.624,-1.208 1.026,-2.513 1.14,-3.837 0.316,-3.492 -1.62,-6.152 -4.302,-7.635 -2.551,-1.591 -6.064,-1.597 -8.255,-1.402 -1.225,0.107 -4.018,1.109 -4.994,1.692 -4.966,2.961 -9.414,8.8 -10.119,16.705 -0.034,0.406 -0.034,0.822 -0.047,1.237 0,0 0.347,7.675 1.938,10.808 3.571,8.468 12.143,15.73 27.129,17.054 2.542,0.229 5.265,0.28 8.064,0.128 7.476,-0.403 15.521,-2.272 22.291,-6.294 7.778,-5.113 14.319,-14.084 16.052,-29.842 0.16,-1.465 0.293,-2.972 0.37,-4.556 -0.008,-1.072 0.072,-26.823 0.072,-26.823 l 0.072,-13.773 0.053,-10.37 c 0.012,-0.005 0.027,-0.012 0.042,-0.015 0.144,-0.058 0.285,-0.113 0.428,-0.165 2.285,-0.89 4.542,-1.739 6.321,-2.107 4.788,-0.99 8.271,-0.14 10.782,2.022 2.468,2.126 3.982,5.527 4.852,9.715 0.016,0.065 0.021,0.142 0.039,0.208 1.235,6.171 1.136,14.044 0.708,22.186 -0.059,1.148 -0.249,4.183 -0.42,6.938 -0.132,2.098 -0.19,9.474 0.034,12.078 0.676,7.806 2.491,22.08 6.715,31.368 8.056,17.718 26.823,33.651 61.251,39.156 h -1.939 c 30.604,3.81 75.203,-8.142 140.222,-28.135 0,0 259.591,-79.391 245.695,-19.041 0,0 66.781,-106.042 -188.233,-17.463"
   id="path7"
   inkscape:connector-curvature="0"
   style="fill:#d15b31" />
	<path
   d="m 687.288,314.871 c -1.517,-8.206 3.767,-16.121 11.965,-17.637 8.203,-1.521 16.156,3.95 17.673,12.151 1.518,8.201 -3.987,15.969 -12.187,17.486 -8.203,1.512 -15.931,-3.804 -17.451,-12 z m -96.653,132.137 c -6.479,8.284 -14.195,11.109 -19.957,12.178 -10.44,1.931 -18.25,-2.793 -21.439,-13.771 -4.191,9.646 -11.367,19.84 -24.603,22.287 -12.675,2.345 -26.235,-3.241 -30.342,-25.422 -4.651,-25.167 3.404,-68.103 35.838,-74.104 10.622,-1.966 17.014,4.607 17.014,4.607 l 0.167,-2.235 c 0.008,-0.114 0.032,-0.213 0.048,-0.321 0.266,-2.357 1.851,-4.035 4.795,-5.014 0.189,-0.059 0.372,-0.123 0.569,-0.18 0.396,-0.113 0.829,-0.21 1.269,-0.302 l 11.086,-2.052 c 0.438,-0.07 0.88,-0.132 1.293,-0.17 0.203,-0.019 0.394,-0.027 0.594,-0.033 3.995,-0.185 6.338,1.475 6.994,5.027 0.055,0.284 0.09,0.676 0.123,1.099 l -0.065,2.441 c 0.009,-0.005 0.009,-0.007 0.017,-0.014 l -0.168,6.497 -1.271,49.302 c -0.111,2.531 0.05,4.425 0.361,6.103 0.965,5.218 3.905,7.57 9.121,6.603 7.25,-1.338 10.768,-10.431 11.848,-20.234 l 0.981,-37.688 -0.026,0.002 0.515,-19.485 0.007,-0.283 c 0.004,-0.063 0.019,-0.132 0.021,-0.195 0.148,-2.53 1.758,-4.312 4.838,-5.33 0.188,-0.062 0.373,-0.13 0.57,-0.183 0.396,-0.112 0.829,-0.212 1.267,-0.307 0.134,-0.028 0.25,-0.066 0.396,-0.087 l 10.291,-1.907 c 0.143,-0.028 0.266,-0.033 0.399,-0.052 0.442,-0.071 0.882,-0.138 1.293,-0.17 0.2,-0.023 0.395,-0.028 0.595,-0.033 3.995,-0.186 6.339,1.479 6.995,5.021 0.051,0.291 0.088,0.679 0.122,1.106 0.007,0.102 0.016,0.187 0.021,0.295 l -0.061,2.108 c 6.174,-10.363 14.084,-13.363 19.852,-14.432 11.927,-2.207 21.826,2.325 24.587,17.235 2.793,15.095 -1.982,39.301 -0.051,49.742 0.861,4.664 3.312,7.484 8.906,6.455 8.197,-1.521 10.312,-8.854 12.621,-19.298 l 0.157,-0.033 0.998,-37.614 0.503,-19.463 0.01,-0.284 c 0.063,-2.639 1.688,-4.479 4.849,-5.529 0.187,-0.061 0.366,-0.127 0.563,-0.179 0.521,-0.146 1.062,-0.286 1.654,-0.393 l 10.277,-1.906 c 0.596,-0.106 1.149,-0.173 1.687,-0.22 0.204,-0.02 0.394,-0.029 0.595,-0.033 3.984,-0.186 6.323,1.48 6.977,5.022 0.071,0.357 0.113,0.842 0.151,1.395 l -0.453,16.628 -1.784,65.331 c 10.562,-6.181 16.288,-13.769 18.521,-30.812 l 0.027,-0.901 0.024,-0.002 1.449,-56.138 c -0.005,-0.067 -0.019,-0.15 -0.019,-0.215 l 0.002,-0.284 c 0.003,-0.121 0.026,-0.23 0.038,-0.345 0.196,-2.45 1.798,-4.182 4.812,-5.182 0.186,-0.062 0.369,-0.127 0.562,-0.183 0.52,-0.148 1.062,-0.285 1.654,-0.396 l 10.281,-1.9 c 0.592,-0.107 1.145,-0.179 1.683,-0.224 0.208,-0.018 0.401,-0.024 0.594,-0.031 3.987,-0.182 6.329,1.479 6.983,5.023 0.063,0.374 0.115,0.876 0.148,1.46 0.007,0.132 0.014,0.293 0.02,0.438 0.07,1.809 0.005,4.466 -0.205,7.996 l -1.278,49.408 c -0.026,1.93 0.099,3.643 0.406,5.323 0.796,4.286 2.911,7.361 7.008,6.607 7.265,-1.349 10.804,-9.322 11.879,-19.162 l 0.974,-37.613 0.501,-19.459 0.011,-0.286 c 0.067,-2.64 1.69,-4.48 4.851,-5.526 0.188,-0.062 0.366,-0.132 0.564,-0.18 0.52,-0.151 1.059,-0.286 1.653,-0.397 l 10.272,-1.898 c 0.601,-0.111 1.147,-0.181 1.687,-0.226 0.203,-0.019 0.397,-0.025 0.597,-0.032 3.985,-0.183 6.324,1.479 6.979,5.021 0.068,0.373 0.113,0.881 0.151,1.462 0.112,1.936 0.03,5.017 -0.238,9.278 l -0.188,7.282 -1.062,41.29 c -0.116,2.527 0.042,4.425 0.354,6.101 0.969,5.221 3.703,6.448 8.92,5.481 3.381,-0.626 5.981,-2.708 7.917,-5.728 -0.062,-0.255 -0.132,-0.52 -0.183,-0.78 -1.52,-8.213 2.204,-15.178 6.808,-18.431 6.519,-17.808 9.95,-35.055 12.433,-51.98 0.023,-0.158 0.047,-0.321 0.068,-0.479 0.508,-2.84 2.587,-4.947 6.229,-6.332 0.217,-0.083 0.42,-0.163 0.638,-0.236 0.442,-0.15 0.927,-0.288 1.413,-0.423 l 12.208,-3.068 c 0.479,-0.104 0.959,-0.208 1.405,-0.279 0.215,-0.038 0.431,-0.062 0.634,-0.085 3.346,-0.409 5.383,0.454 6.152,2.552 l 1.398,5.262 0.896,3.527 c 0.898,3.655 1.725,6.998 2.49,10.046 6.186,24.582 8.516,30.677 10.229,39.962 4.291,23.204 -16.278,34.944 -31.564,37.774 -12.947,2.391 -21.896,-1.691 -26.933,-7.972 -7.015,12.416 -16.598,16.175 -23.436,17.44 -10.625,1.961 -18.473,-2.949 -21.729,-14.294 -6.495,17.009 -16.483,21.359 -24.31,22.811 -9.333,1.725 -17.811,-1.574 -22.056,-11.795 -0.008,0.005 -0.013,0.015 -0.018,0.018 l -0.005,-0.062 c -0.07,-0.168 -0.15,-0.313 -0.21,-0.483 -5.423,11.476 -13.781,17.143 -21.262,20.763 l -0.312,13.936 c -0.146,6.029 -3.812,33.6 -4.819,38.144 -1.003,4.546 -6.277,23.001 -25.213,28.293 -14.534,4.06 -20.624,-3.367 -23.328,-6.733 -2.425,-3.013 -2.977,-5.465 -4.283,-11.318 -4.479,-20.061 17.791,-51.225 31.166,-58.13 l 0.271,-10.342 c -6.049,10.187 -13.746,13.218 -19.965,14.365 -16.217,3.001 -23.924,-6.37 -25.891,-16.995 -2.343,-12.671 1.803,-37.147 -0.407,-49.074 -1.136,-6.155 -3.993,-9.097 -8.464,-8.27 -6.713,1.243 -10.297,10.006 -11.367,19.839 l -0.973,37.603 -0.014,0.438 -0.147,5.741 c 0.008,0.053 0.022,0.109 0.034,0.156 l -0.218,8.27 -0.032,-0.175 c 0,0 -0.016,0.326 -0.041,0.827 l -0.108,5.039 c -0.038,0.353 -0.065,0.446 -0.072,0.398 -0.398,2.15 -1.95,3.7 -4.734,4.622 -0.187,0.063 -0.371,0.127 -0.565,0.183 -0.271,0.074 -0.562,0.139 -0.856,0.202 -0.137,0.03 -0.272,0.066 -0.413,0.103 l -11.104,2.053 c -0.146,0.026 -0.285,0.035 -0.426,0.055 -0.293,0.044 -0.599,0.095 -0.87,0.118 -0.202,0.02 -0.399,0.023 -0.595,0.033 -4.003,0.183 -6.354,-1.482 -7.008,-5.038 -0.047,-0.25 -0.08,-0.58 -0.11,-0.947 -0.004,-0.049 -0.008,-0.097 -0.014,-0.147 l 0.026,-0.912 0.005,-0.253 0.03,-1.285 c -0.003,0.007 -0.007,0.018 -0.012,0.026 l 0.005,-0.304 0.01,-0.358 c -0.06,0.102 -0.121,0.199 -0.181,0.293 -0.213,0.343 -0.428,0.674 -0.644,0.997 -0.077,0.118 -0.151,0.23 -0.229,0.345 -0.104,0.146 -0.202,0.293 -0.306,0.439 -0.162,0.233 -0.327,0.469 -0.495,0.689 -0.247,0.355 -0.509,0.705 -0.773,1.04 m 242.927,-61.935 c -0.266,-0.092 -1.017,1.86 -0.922,2.146 1.958,5.934 5.838,8.319 12.829,7.024 8.198,-1.522 15.457,-7.104 13.146,-19.602 -1.648,-8.886 -4.191,-14.062 -10.502,-38.292 -0.283,-1.084 -0.569,-2.191 -0.867,-3.353 -0.158,1.243 -0.351,2.471 -0.543,3.703 -1.711,10.951 -4.688,21.531 -8.316,32.824 2.624,0.618 4.886,2.419 5.452,5.452 0.79,4.281 -1.736,9.366 -6.592,10.26 -1.167,0.225 -2.527,0.249 -3.685,-0.162 z m -286.565,-0.111 c -0.008,-0.045 -0.026,-0.111 -0.037,-0.163 -0.499,-2.287 -3.085,-6.583 -8.911,-5.5 -15.846,2.93 -19.889,38.375 -16.65,55.892 2.657,14.355 8.651,13.438 12.012,12.815 5.404,-1.002 12.2,-8.039 12.436,-19.262 l 0.991,-37.616 0.159,-6.166 z m 127.956,75.552 c -6.693,8.431 -12.272,23.174 -5.233,27.085 7.041,3.908 14.079,-1.304 16.687,-11.473 2.606,-10.165 3.227,-29.604 3.227,-29.604 -5.114,2.721 -8.111,5.717 -14.681,13.992 z"
   id="path9"
   inkscape:connector-curvature="0"
   style="fill:#d15b31" />
</g>
<path
   style="fill:#faa73e"
   inkscape:connector-curvature="0"
   id="path13"
   d="m 1194.2691,715.05603 c -16.8568,7.7118 -22.533,10.2686 -40.4491,18.572 0,0 -554.14622,295.68247 -642.32777,-0.012 -5.47893,-18.4148 -11.6482,-84.8501 -11.93311,-86.3933 -1.44644,-7.9186 -2.86,-35.9855 -2.86,-36.3165 -0.54059,-57.048 10.86289,-135.59714 0.28491,-193.5264 -3.64532,-20.00756 -9.90226,-37.47901 -20.27205,-50.57329 -17.20018,-21.74933 -45.72349,-31.39732 -92.41858,-20.43784 -7.40021,1.70867 -14.79677,4.10412 -23.22701,6.26374 32.16497,-41.28525 55.84125,-88.11023 67.50772,-114.83249 20.89664,-47.86342 41.85537,-92.68185 78.59342,-141.579581 36.7344,-48.91427 86.51595,-55.57932 86.51595,-55.57932 29.46204,-3.06981 15.6807,-10.97603 15.6807,-10.97603 -32.08826,-16.29234 -62.17124,-15.2208 -89.52206,-3.84347 -91.67711,38.18234 -152.80005,192.537641 -156.68278,200.832751 -0.18994,0.42199 -0.4785,1.01775 -0.78166,1.65902 -5.55929,11.67108 -28.84109,59.04217 -48.88302,91.6972 l 0.70861,-129.15553 0.44197,-78.25953 c -0.19359,-2.59817 -0.4164,-4.89846 -0.71591,-6.5492 -2.18792,-11.993791 -7.97733,-19.200811 -17.2148,-21.856901 l 0.0767,-0.0372 c 0,0 -60.29379,-27.80207 -169.90161,86.587741 l 0.0694,-0.0414 c -18.76716,18.41473 -36.591952,40.1351 -50.040892,65.14042 0,0 -26.60934,47.44556 -24.08173,82.62843 1.86284,25.77483 19.43559,44.93427 74.535362,34.04512 7.61937,-1.51422 15.93639,-3.558 25.07524,-6.2927 0,0 31.37966,-10.53748 1.0483,-19.90413 0,0 -15.99482,-5.23358 -27.67225,-12.13445 -2.68832,-1.59282 -5.14288,-3.25185 -7.11895,-4.96879 -10.58529,-9.2053 -37.808272,-56.7998 40.43085,-131.98124 0,0 36.37279,-37.00737 44.22957,-19.76347 0.004,0.0207 0.0146,0.0538 0.0475,0.0662 0.0219,0.029 0.0256,0.0579 0.0548,0.0786 l -0.24838,43.87101 -0.84741,153.87124 -0.40179,76.28194 c 0,0 -2.9294,170.46555 -6.23502,212.80165 -3.39694,43.3994 -23.06995,63.7131 -46.82294,70.2168 -8.8649,2.4244 -18.25214,2.9954 -27.62841,2.0645 -9.65388,-0.9888 -17.53258,-3.318 -23.789522,-7.0829 -13.81055,-8.2331 -19.80085,-23.3132 -19.81181,-45.5714 0,0 -0.16802,-9.8631 3.49921,-6.5492 4.30644,5.1425 11.16606,7.3973 17.23672,8.0179 1.38799,0.1324 2.735812,0.1531 4.069022,0.1117 13.1129,-0.5503 23.89178,-10.1114 29.54969,-22.4651 2.27924,-4.9936 3.74759,-10.3927 4.16399,-15.8745 1.15788,-14.443 -5.91725,-25.4521 -15.70992,-31.5834 -9.31783,-6.5824 -22.153142,-6.6113 -30.152382,-5.8046 -4.47446,0.451 -14.67623,4.5924 -18.24118,7.0085 -18.13891,12.2461 -34.38577,36.4033 -36.96086,69.1039 -0.12419,1.6797 -0.12419,3.4007 -0.17168,5.1177 0,0 1.26746,31.7531 7.07513,44.7191 13.0435,35.034 44.35741,65.0743 99.095582,70.5561 9.28496,0.9474 19.23104,1.1625 29.44742,0.5254 27.31064,-1.6673 56.69231,-9.3998 81.42055,-26.0396 28.41008,-21.1495 52.30186,-58.2644 58.63185,-123.4586 0.58807,-6.061 1.07022,-12.2999 1.35147,-18.8492 -0.0329,-4.4309 0.26299,-110.9683 0.26299,-110.9683 l 0.25568,-56.98596 0.19725,-42.9029 c 0.0438,-0.0207 0.0986,-0.0496 0.15341,-0.0579 0.52963,-0.23996 1.04099,-0.4675 1.56332,-0.68678 8.34623,-3.67384 16.5902,-7.19461 23.08821,-8.71711 17.48874,-4.0917 30.21082,-0.57507 39.38255,8.36545 9.01466,8.79572 14.54473,22.87052 17.72251,40.19303 0.0584,0.27305 0.0767,0.58748 0.14245,0.86054 4.51464,25.53074 4.15303,58.09883 2.58971,91.78823 -0.21551,4.7495 -0.90951,17.3059 -1.5341,28.7039 -0.48215,8.6799 -0.694,39.196 0.12419,49.9652 2.46917,32.2992 9.09867,91.3579 24.52734,129.7843 29.42185,73.3032 97.97422,139.2173 223.72297,161.9926 h -7.08243 c 111.78478,15.7628 274.68797,-33.6852 512.1812,-116.4005 0,0 948.1873,-328.45744 897.4268,-78.7725 0,0 243.9257,-438.71835 -687.5436,-72.2482"
   inkscape:export-filename="/Users/jayraj/Downloads/KanjusAssets 2/Vectors/logo-transparent-background.png"
   inkscape:export-xdpi="180"
   inkscape:export-ydpi="180" /><path
   style="fill:#faa73e"
   inkscape:connector-curvature="0"
   id="path15"
   d="m 1259.0764,74.019689 c -5.541,-33.94997 13.7558,-66.6960204 43.6999,-72.9680304 29.9661,-6.29684 59.0118,16.3419904 64.5565,50.2712804 5.5446,33.92928 -14.563,66.071291 -44.5182,72.343311 -29.9624,6.25546 -58.1899,-15.73796 -63.7382,-49.646561 z M 906.03978,620.70273 c -23.66532,34.2686 -51.84894,45.9604 -72.89898,50.383 -38.1297,7.989 -66.65666,-11.5511 -78.30852,-56.9777 -15.30813,39.9117 -41.51568,82.0823 -89.86176,92.2061 -46.29695,9.6976 -95.83013,-13.4087 -110.82779,-105.1762 -16.99199,-104.1213 12.42987,-281.75253 130.89894,-306.57995 38.80178,-8.13376 62.14933,19.056 62.14933,19.056 l 0.61364,-9.24667 c 0.0219,-0.4675 0.10958,-0.88122 0.16802,-1.32804 0.97159,-9.75555 6.761,-16.69366 17.51431,-20.74399 0.69035,-0.24823 1.35878,-0.50888 2.07834,-0.7447 1.44644,-0.4675 3.03168,-0.86881 4.63518,-1.25357 l 40.49294,-8.48543 c 1.6035,-0.29374 3.21431,-0.55025 4.72649,-0.70746 0.74148,-0.0786 1.43548,-0.11171 2.166,-0.13239 14.59222,-0.76539 23.15031,6.10239 25.55008,20.79777 0.20089,1.17497 0.32874,2.80089 0.44562,4.55093 l -0.23012,10.0948 c 0.0256,-0.0207 0.0256,-0.029 0.0548,-0.062 l -0.60998,26.88361 -4.64248,203.97289 c -0.39814,10.4672 0.18628,18.3072 1.31859,25.2536 3.52843,21.5838 14.26714,31.3146 33.31555,27.3139 26.48149,-5.5315 39.33506,-43.147 43.27627,-83.7124 l 3.5868,-155.92334 -0.099,0.008 1.8848,-80.61361 0.022,-1.16669 c 0.015,-0.26478 0.073,-0.55439 0.077,-0.81089 0.5442,-10.46715 6.4213,-17.83967 17.6714,-22.05135 0.6867,-0.25651 1.3624,-0.53784 2.082,-0.75297 1.4464,-0.46751 3.0316,-0.88123 4.6315,-1.27427 0.4894,-0.11584 0.9168,-0.26891 1.4464,-0.35993 l 37.5891,-7.88967 c 0.526,-0.1117 0.9716,-0.13239 1.4611,-0.21513 1.6144,-0.29375 3.2179,-0.5668 4.7265,-0.70333 0.7268,-0.0952 1.4391,-0.11584 2.166,-0.13653 14.59215,-0.76538 23.15385,6.11894 25.55365,20.77295 0.1863,1.20393 0.3178,2.80503 0.442,4.56748 0.029,0.42614 0.058,0.7778 0.077,1.22048 l -0.2192,8.71711 c 22.5513,-42.8698 51.4435,-55.28558 72.5082,-59.70413 43.5648,-9.13083 79.7184,9.61489 89.8106,71.30488 10.1981,62.45123 -7.2359,162.59662 -0.1826,205.79324 3.1376,19.296 12.0938,30.963 32.5229,26.7058 29.9478,-6.2927 37.6658,-36.63095 46.1033,-79.84001 l 0.5772,-0.13653 3.6416,-155.61714 1.8373,-80.52672 0.037,-1.17083 c 0.2265,-10.91811 6.1656,-18.53058 17.7079,-22.87052 0.6867,-0.2565 1.3369,-0.52542 2.0638,-0.74883 1.8993,-0.60403 3.8754,-1.18324 6.0341,-1.62179 l 37.5416,-7.88966 c 2.1733,-0.43441 4.2005,-0.71161 6.1656,-0.91019 0.7415,-0.0827 1.4319,-0.11584 2.166,-0.13653 14.5594,-0.76125 23.1029,6.12721 25.488,20.78122 0.2557,1.46871 0.4128,3.4794 0.5516,5.76728 l -1.6583,68.79772 -6.5163,270.28413 c 38.5826,-25.5721 59.4975,-56.957 67.6502,-127.4758 l 0.1022,-3.73177 0.08,-0.008 5.3,-232.25075 c -0.018,-0.28133 -0.077,-0.62472 -0.077,-0.89364 l 0.011,-1.17083 c 0.011,-0.5006 0.091,-0.95569 0.1352,-1.43147 0.7159,-10.13204 6.5747,-17.30183 17.58,-21.4349 0.6721,-0.25651 1.3442,-0.52543 2.0528,-0.75298 1.903,-0.61231 3.8827,-1.18324 6.0414,-1.63833 l 37.5563,-7.85657 c 2.1587,-0.45096 4.1786,-0.74884 6.1473,-0.93501 0.7598,-0.0662 1.4647,-0.091 2.166,-0.12826 14.5667,-0.75297 23.1174,6.11894 25.5099,20.78123 0.2301,1.54318 0.4201,3.6242 0.5406,6.04033 0.026,0.54611 0.055,1.2122 0.069,1.8121 0.2593,7.48422 0.018,18.47679 -0.7488,33.07702 l -4.668,204.41557 c -0.091,7.98482 0.3689,15.076 1.4829,22.02239 2.9075,17.73209 10.6328,30.45816 25.5976,27.33456 26.5436,-5.5811 39.4702,-38.5671 43.3931,-79.269 l 3.5577,-155.61714 1.8336,-80.50604 0.033,-1.18324 c 0.2483,-10.91811 6.1765,-18.53058 17.7225,-22.86224 0.683,-0.25651 1.3332,-0.54611 2.0564,-0.7447 1.903,-0.62472 3.8718,-1.18324 6.0414,-1.63834 l 37.5161,-7.860701 c 2.1989,-0.45923 4.1932,-0.74056 6.1656,-0.92674 0.7415,-0.0827 1.4464,-0.10756 2.1733,-0.13652 14.5594,-0.75711 23.1028,6.11893 25.4917,20.772941 0.2483,1.54318 0.4127,3.64489 0.5478,6.04861 0.4128,8.00964 0.1133,20.7564 -0.8693,38.38506 l -0.683,30.12719 -3.8828,170.82554 c -0.42,10.45887 0.1571,18.30717 1.2931,25.237 3.5394,21.60866 13.522,26.67675 32.5777,22.67607 12.3495,-2.5899 21.85,-11.20358 28.9178,-23.69796 -0.2265,-1.05499 -0.4822,-2.15135 -0.6648,-3.22289 -5.552,-33.9748 8.0504,-62.79876 24.8634,-76.25712 23.8114,-73.67549 36.3509,-145.03001 45.413,-215.052341 0.084,-0.65782 0.1717,-1.33219 0.2484,-1.98173 1.8555,-11.74969 9.453,-20.46679 22.7558,-26.19683 0.7963,-0.34339 1.5378,-0.67437 2.3304,-0.97639 1.6144,-0.62472 3.386,-1.19565 5.1611,-1.75004 l 44.5912,-12.69711 c 1.7496,-0.43027 3.5029,-0.86054 5.1319,-1.15428 0.789,-0.15721 1.5743,-0.2565 2.3158,-0.35166 12.2217,-1.69212 19.6584,1.87829 22.4673,10.55403 l 5.1063,21.77002 3.2801,14.59195 c 3.2727,15.121511 6.3008,28.952221 9.0914,41.562441 22.5987,101.70098 31.1057,126.92143 37.3663,165.33132 15.6697,95.9999 -59.461,144.57078 -115.295,156.2791 -47.2905,9.89207 -79.9777,-7.00017 -98.376,-32.98187 -25.6231,51.36764 -60.6298,66.91942 -85.6028,72.15292 -38.8091,8.1131 -67.4712,-12.19642 -79.3678,-59.13725 -23.7201,70.36985 -60.2098,88.36675 -88.7988,94.36975 -34.0863,7.1367 -65.0532,-6.5078 -80.5622,-48.7942 -0.026,0.0166 -0.044,0.0579 -0.058,0.0703 l -0.018,-0.25651 c -0.2593,-0.69505 -0.5516,-1.29495 -0.7707,-1.99827 -19.8082,47.47868 -50.3368,70.92838 -77.6657,85.90098 l -1.1396,57.6562 c -0.5333,24.9391 -13.9274,139.0103 -17.6056,157.8057 -3.6563,18.8078 -22.9275,95.16 -92.0899,117.0542 -53.0908,16.7971 -75.3316,-13.9259 -85.2119,-27.8559 -8.854,-12.4654 -10.8666,-22.6099 -15.6442,-46.825 -16.3601,-82.9925 64.9838,-211.9246 113.8375,-240.492 l 0.9899,-42.7871 c -22.091,42.1417 -50.2089,54.6816 -72.9245,59.4269 -59.2382,12.4158 -87.389,-26.354 -94.57,-70.3119 -8.5581,-52.42262 6.5856,-153.68506 -1.483,-203.0296 -4.1567,-25.46455 -14.5849,-37.63623 -30.9231,-34.21889 -24.5164,5.14256 -37.611,41.39696 -41.5157,82.07818 l -3.554,155.57571 -0.047,1.8121 -0.5443,23.7518 c 0.037,0.2151 0.084,0.4468 0.1242,0.6454 l -0.789,34.2106 -0.1241,-0.724 c 0,0 -0.055,1.3487 -0.1461,3.4215 l -0.3945,20.8515 c -0.1352,1.4563 -0.2338,1.8452 -0.2594,1.6425 -1.4574,8.895 -7.1262,15.3077 -17.29875,19.1222 -0.6794,0.2606 -1.3551,0.5296 -2.0564,0.7571 -0.9899,0.3103 -2.0564,0.5792 -3.1266,0.8399 -0.5041,0.1199 -0.9972,0.2689 -1.5159,0.422 l -40.5587,8.4978 c -0.5333,0.1034 -1.0373,0.1448 -1.556,0.2275 -1.0702,0.1779 -2.1879,0.3931 -3.1778,0.4841 -0.7378,0.087 -1.4574,0.095 -2.1733,0.1365 -14.6251,0.7571 -23.2087,-6.1313 -25.5975,-20.8391 -0.17168,-1.0343 -0.29587,-2.4037 -0.40544,-3.9138 -0.0146,-0.211 -0.0256,-0.4096 -0.0475,-0.6123 l 0.095,-3.7732 0.0183,-1.0508 0.11323,-5.3163 c -0.0146,0.033 -0.0292,0.079 -0.0475,0.1075 l 0.0183,-1.2494 0.0365,-1.4853 c -0.21916,0.422 -0.43832,0.8192 -0.66478,1.2122 -0.77801,1.415 -1.55967,2.7844 -2.34863,4.1207 -0.28125,0.4923 -0.5552,0.9557 -0.83645,1.4315 -0.37622,0.604 -0.73053,1.2122 -1.11405,1.8162 -0.59173,0.964 -1.19806,1.9362 -1.8117,2.8464 -0.89124,1.5018 -1.84823,2.9498 -2.80887,4.3399 M 1793.3561,364.46034 c -0.9716,-0.38063 -3.7184,7.70349 -3.3677,8.88673 7.1554,24.54609 21.324,34.41334 46.8558,29.05565 29.9478,-6.2927 56.4585,-29.38249 48.0173,-81.09352 -6.0232,-36.76741 -15.3081,-58.17749 -38.3598,-158.42217 -1.0373,-4.48474 -2.082,-9.06877 -3.1668,-13.87621 -0.5771,5.14255 -1.2784,10.22719 -1.9871,15.31596 -6.2459,45.30662 -17.1234,89.07834 -30.3751,135.80403 9.5881,2.56093 17.8503,10.00792 19.9177,22.56022 2.8819,17.71141 -6.3373,38.74914 -24.0781,42.44367 -4.2553,0.93087 -9.2265,1.02603 -13.4562,-0.67436 z M 746.64676,364.00111 c -0.0329,-0.18618 -0.0986,-0.4551 -0.1388,-0.67437 -1.81901,-9.45767 -11.26468,-27.23528 -32.5485,-22.75467 -57.87576,12.12617 -72.64696,158.76556 -60.81247,231.24126 9.70501,59.3856 31.59882,55.5917 43.87527,53.0101 19.73511,-4.1413 44.55831,-33.2466 45.42033,-79.6827 l 3.61975,-155.62543 0.58442,-25.51419 z m 467.37094,312.57062 c -24.447,34.8767 -44.8213,95.8716 -19.1142,112.0564 25.7181,16.1641 51.4253,-5.3991 60.9513,-47.4704 9.5224,-42.0506 11.7907,-122.478 11.7907,-122.478 -18.6869,11.2656 -29.6264,23.6607 -53.6278,57.892 z"
   inkscape:export-filename="/Users/jayraj/Downloads/KanjusAssets 2/Vectors/logo-transparent-background.png"
   inkscape:export-xdpi="180"
   inkscape:export-ydpi="180" />
<flowRoot
   xml:space="preserve"
   id="flowRoot2998"
   style="font-size:40px;font-style:normal;font-weight:normal;line-height:125%;letter-spacing:0px;word-spacing:0px;fill:#000000;fill-opacity:1;stroke:none;font-family:Sans"
   transform="translate(-79.770452,614.40613)"><flowRegion
     id="flowRegion3000"><rect
       id="rect3002"
       width="47.505154"
       height="41.567009"
       x="1205.4434"
       y="570.06183" /></flowRegion><flowPara
     id="flowPara3004" /></flowRoot><flowRoot
   xml:space="preserve"
   id="flowRoot3006"
   style="font-size:40px;font-style:normal;font-weight:normal;line-height:125%;letter-spacing:0px;word-spacing:0px;fill:#000000;fill-opacity:1;stroke:none;font-family:Sans"
   transform="translate(-79.770452,614.40613)"><flowRegion
     id="flowRegion3008"><rect
       id="rect3010"
       width="77.195877"
       height="53.443298"
       x="1202.4742"
       y="578.96906" /></flowRegion><flowPara
     id="flowPara3012" /></flowRoot><flowRoot
   xml:space="preserve"
   id="flowRoot3014"
   style="font-size:40px;font-style:normal;font-weight:normal;line-height:125%;letter-spacing:0px;word-spacing:0px;fill:#ffffff;fill-opacity:1;stroke:none;font-family:Sans"
   transform="translate(-79.770452,614.40613)"><flowRegion
     id="flowRegion3016"><rect
       id="rect3018"
       width="77.195877"
       height="59.381443"
       x="1202.4742"
       y="564.12372"
       style="fill:#ffffff;fill-opacity:1" /></flowRegion><flowPara
     id="flowPara3020" /></flowRoot><text
   xml:space="preserve"
   style="font-size:40px;font-style:normal;font-weight:normal;line-height:125%;letter-spacing:0px;word-spacing:0px;fill:#ffffff;fill-opacity:1;stroke:none;font-family:Sans"
   x="1143.4872"
   y="1211.1896"
   id="text3790"
   sodipodi:linespacing="125%"><tspan
     sodipodi:role="line"
     id="tspan3792"
     x="1143.4872"
     y="1211.1896" /></text>





<text
   xml:space="preserve"
   style="font-size:40px;font-style:normal;font-weight:normal;line-height:125%;letter-spacing:0px;word-spacing:0px;fill:#ffffff;fill-opacity:1;stroke:none;font-family:Sans"
   x="1152.3944"
   y="1175.5608"
   id="text3794"
   sodipodi:linespacing="125%"><tspan
     sodipodi:role="line"
     id="tspan3796"
     x="1152.3944"
     y="1175.5608" /></text>





<flowRoot
   xml:space="preserve"
   id="flowRoot3798"
   style="font-size:40px;font-style:normal;font-weight:normal;line-height:125%;letter-spacing:0px;word-spacing:0px;fill:#ffffff;fill-opacity:1;stroke:none;font-family:Sans"
   transform="translate(-79.770452,614.40613)"><flowRegion
     id="flowRegion3800"><rect
       id="rect3802"
       width="341.4433"
       height="190.02061"
       x="145.48454"
       y="1092.6185"
       style="fill:#ffffff;fill-opacity:1" /></flowRegion><flowPara
     id="flowPara3804" /></flowRoot><flowRoot
   xml:space="preserve"
   id="flowRoot3806"
   style="font-size:40px;font-style:normal;font-weight:normal;line-height:125%;letter-spacing:0px;word-spacing:0px;fill:#ffffff;fill-opacity:1;stroke:none;font-family:Sans"
   transform="translate(-79.770452,614.40613)"><flowRegion
     id="flowRegion3808"><rect
       id="rect3810"
       width="499.66934"
       height="214.14401"
       x="-25.193413"
       y="975.27094"
       style="fill:#ffffff;fill-opacity:1" /></flowRegion><flowPara
     id="flowPara3812" /></flowRoot><flowRoot
   xml:space="preserve"
   id="flowRoot3814"
   style="font-size:40px;font-style:normal;font-weight:normal;line-height:125%;letter-spacing:0px;word-spacing:0px;fill:#000000;fill-opacity:1;stroke:none;font-family:Sans"
   transform="matrix(1.742073,0,0,1.742073,-70.578602,-120.00633)"><flowRegion
     id="flowRegion3816"><rect
       id="rect3818"
       width="58.784641"
       height="56.685184"
       x="-16.795609"
       y="968.97253" /></flowRegion><flowPara
     id="flowPara3820"
     style="fill:#ffffff;fill-opacity:1">™</flowPara></flowRoot><flowRoot
   xml:space="preserve"
   id="flowRoot3822"
   style="font-size:40px;font-style:normal;font-weight:normal;line-height:125%;letter-spacing:0px;word-spacing:0px;fill:#000000;fill-opacity:1;stroke:none;font-family:Sans"
   transform="translate(-79.770452,614.40613)"><flowRegion
     id="flowRegion3824"><rect
       id="rect3826"
       width="176.35388"
       height="170.05554"
       x="-191.05005"
       y="830.40881" /></flowRegion><flowPara
     id="flowPara3828" /></flowRoot><flowRoot
   xml:space="preserve"
   id="flowRoot3830"
   style="font-size:40px;font-style:normal;font-weight:normal;line-height:125%;letter-spacing:0px;word-spacing:0px;fill:#000000;fill-opacity:1;stroke:none;font-family:Sans"
   transform="translate(-79.770452,614.40613)"><flowRegion
     id="flowRegion3832"><rect
       id="rect3834"
       width="356.90668"
       height="228.84016"
       x="-102.8731"
       y="899.69067" /></flowRegion><flowPara
     id="flowPara3836" /></flowRoot><flowRoot
   xml:space="preserve"
   id="flowRoot3838"
   style="font-size:40px;font-style:normal;font-weight:normal;line-height:125%;letter-spacing:0px;word-spacing:0px;fill:#000000;fill-opacity:1;stroke:none;font-family:Sans"
   transform="translate(-79.770452,614.40613)"><flowRegion
     id="flowRegion3840"><rect
       id="rect3842"
       width="138.56377"
       height="79.779137"
       x="100.77365"
       y="45.214085" /></flowRegion><flowPara
     id="flowPara3844" /></flowRoot><flowRoot
   xml:space="preserve"
   id="flowRoot3846"
   style="font-size:40px;font-style:normal;font-weight:normal;line-height:125%;letter-spacing:0px;word-spacing:0px;fill:#000000;fill-opacity:1;stroke:none;font-family:Sans"
   transform="matrix(1.9212493,0,0,1.9212493,-302.8389,-288.86825)"
   inkscape:export-filename="/Users/jayraj/Downloads/KanjusAssets 2/Vectors/logo-transparent-background.png"
   inkscape:export-xdpi="180"
   inkscape:export-ydpi="180"><flowRegion
     id="flowRegion3848"><rect
       id="rect3850"
       width="83.978043"
       height="54.585728"
       x="1207.1843"
       y="559.57959" /></flowRegion><flowPara
     id="flowPara3852"
     style="fill:#ffffff;fill-opacity:1">™</flowPara></flowRoot></svg>